STARTFONT 2.1
COMMENT 
COMMENT $XFree86$
COMMENT 
COMMENT Copyright 2002 Computing Research Labs, New Mexico State University
COMMENT 
COMMENT Permission is hereby granted, free of charge, to any person
COMMENT obtaining a copy of this software and associated documentation
COMMENT files (the "Software"), to deal in the Software without
COMMENT restriction, including without limitation the rights to use,
COMMENT copy, modify, merge, publish, distribute, sublicense, and/or
COMMENT sell copies of the Software, and to permit persons to whom the
COMMENT Software is furnished to do so, subject to the following
COMMENT conditions:
COMMENT 
COMMENT The above copyright notice and this permission notice shall be
COMMENT included in all copies or substantial portions of the Software.
COMMENT 
COMMENT THE SOFTWARE IS PROVIDED "AS IS", WITHOUT WARRANTY OF ANY KIND,
COMMENT EXPRESS OR IMPLIED, INCLUDING BUT NOT LIMITED TO THE WARRANTIES
COMMENT OF MERCHANTABILITY, FITNESS FOR A PARTICULAR PURPOSE AND
COMMENT NONINFRINGEMENT.  IN NO EVENT SHALL THE COMPUTING RESEARCH LAB
COMMENT OR NEW MEXICO STATE UNIVERSITY BE LIABLE FOR ANY CLAIM, DAMAGES
COMMENT OR OTHER LIABILITY, WHETHER IN AN ACTION OF CONTRACT, TORT OR
COMMENT OTHERWISE, ARISING FROM, OUT OF OR IN CONNECTION WITH THE
COMMENT SOFTWARE OR THE USE OR OTHER DEALINGS IN THE SOFTWARE.
COMMENT 
COMMENT This font contains glyphs to support text encoded in the Devanagari
COMMENT section of Unicode.  Many glyphs (not characters) needed are stored
COMMENT in the PUA area starting at E900.
COMMENT 
FONT -MUTT-ClearlyU Devanagari-Medium-R-Normal--15-120-90-90-P-104-FontSpecific-0
SIZE 12 90 90
FONTBOUNDINGBOX 25 25 -6 -7
STARTPROPERTIES 17
POINT_SIZE 120
PIXEL_SIZE 15
RESOLUTION_X 90
RESOLUTION_Y 90
FONT_ASCENT 12
FONT_DESCENT 3
AVERAGE_WIDTH 104
SPACING "P"
FOUNDRY "MUTT"
FAMILY_NAME "ClearlyU Devanagari"
WEIGHT_NAME "Medium"
SLANT "R"
SETWIDTH_NAME "Normal"
ADD_STYLE_NAME ""
CHARSET_REGISTRY "FontSpecific"
CHARSET_ENCODING "0"

STARTCHAR uni0901
ENCODING 2304
SWIDTH 0 0
DWIDTH 0 0
BBX 6 4 0 13
BITMAP
20
A4
8C
78
ENDCHAR
STARTCHAR uni0902
ENCODING 2305
SWIDTH 0 0
DWIDTH 0 0
BBX 1 2 0 14
BITMAP
80
80
ENDCHAR
STARTCHAR uni0903
ENCODING 2306
SWIDTH 466 0
DWIDTH 7 0
BBX 3 9 2 1
BITMAP
40
E0
40
00
00
00
40
E0
40
ENDCHAR
STARTCHAR uni0905
ENCODING 2308
SWIDTH 933 0
DWIDTH 14 0
BBX 15 12 0 -1
BITMAP
78FE
0420
0220
0420
3C20
83E0
8120
4120
2320
1E20
0020
0020
ENDCHAR
STARTCHAR uni0906
ENCODING 2309
SWIDTH 1200 0
DWIDTH 18 0
BBX 18 12 0 -1
BITMAP
78FFC0
042100
022100
042100
3C2100
83E100
822100
422100
262100
1C2100
002100
002100
ENDCHAR
STARTCHAR uni0907
ENCODING 2310
SWIDTH 666 0
DWIDTH 10 0
BBX 10 13 0 -2
BITMAP
FFC0
0400
7C00
4000
4000
3800
0400
0400
3C00
3C00
0400
0200
0100
ENDCHAR
STARTCHAR uni0908
ENCODING 2311
SWIDTH 666 0
DWIDTH 10 0
BBX 10 18 0 -2
BITMAP
0C00
1200
1000
0800
0400
FFC0
0400
7C00
4000
4000
3800
0400
0400
3C00
3C00
0400
0200
0100
ENDCHAR
STARTCHAR uni0909
ENCODING 2312
SWIDTH 1000 0
DWIDTH 15 0
BBX 16 11 0 0
BITMAP
FFFF
0100
0100
0100
1E00
8300
8080
4080
4080
3180
0F00
ENDCHAR
STARTCHAR uni090A
ENCODING 2313
SWIDTH 1000 0
DWIDTH 15 0
BBX 16 11 0 0
BITMAP
FFFF
0100
0100
0100
1E00
83B0
80C8
4088
4088
3190
0F00
ENDCHAR
STARTCHAR uni090B
ENCODING 2314
SWIDTH 1133 0
DWIDTH 17 0
BBX 17 12 0 -1
BITMAP
FFFF80
010000
010000
391000
453800
03F000
031000
0D0800
311000
012000
012000
001C00
ENDCHAR
STARTCHAR uni090C
ENCODING 2315
SWIDTH 1000 0
DWIDTH 15 0
BBX 15 13 0 -2
BITMAP
FFFE
0040
0040
0040
78E0
C590
8308
8008
4008
4070
2080
1080
0078
ENDCHAR
STARTCHAR uni090D
ENCODING 2316
SWIDTH 800 0
DWIDTH 12 0
BBX 12 21 0 -5
BITMAP
0420
0460
03C0
0000
0000
FFF0
4100
4100
4100
4100
4100
4100
4600
2000
1000
0C00
0200
0180
0040
0040
0080
ENDCHAR
STARTCHAR uni090E
ENCODING 2317
SWIDTH 800 0
DWIDTH 12 0
BBX 12 21 0 -5
BITMAP
4000
4000
3E00
0100
0100
FFF0
4100
4100
4100
4100
4100
4100
4600
2000
1000
0C00
0200
0180
0040
0040
0080
ENDCHAR
STARTCHAR uni090F
ENCODING 2318
SWIDTH 800 0
DWIDTH 12 0
BBX 12 16 0 -5
BITMAP
FFF0
4100
4100
4100
4100
4100
4100
4600
2000
1000
0C00
0200
0180
0040
0040
0080
ENDCHAR
STARTCHAR uni0910
ENCODING 2319
SWIDTH 800 0
DWIDTH 12 0
BBX 12 21 0 -5
BITMAP
6000
1800
0400
0200
0100
FFF0
4100
4100
4100
4100
4100
4100
4600
2000
1000
0C00
0200
0180
0040
0040
0080
ENDCHAR
STARTCHAR uni0911
ENCODING 2320
SWIDTH 1200 0
DWIDTH 18 0
BBX 18 16 0 -1
BITMAP
001080
001180
000F00
000000
78FFC0
042100
022100
042100
3C2100
83E100
812100
412100
232100
1E2100
002100
002100
ENDCHAR
STARTCHAR uni0912
ENCODING 2321
SWIDTH 1200 0
DWIDTH 18 0
BBX 18 17 0 -1
BITMAP
004000
004000
003E00
000100
000100
78FFC0
042100
022100
042100
3C2100
83E100
822100
422100
262100
1C2100
002100
002100
ENDCHAR
STARTCHAR uni0913
ENCODING 2322
SWIDTH 1200 0
DWIDTH 18 0
BBX 18 17 0 -1
BITMAP
006000
001800
000400
000200
000100
78FFC0
042100
022100
042100
3C2100
83E100
822100
422100
262100
1C2100
002100
002100
ENDCHAR
STARTCHAR uni0914
ENCODING 2323
SWIDTH 1200 0
DWIDTH 18 0
BBX 18 18 0 -1
BITMAP
003000
000800
00C400
003A00
000700
000100
78FFC0
042100
022100
042100
3C2100
83E100
822100
422100
262100
1C2100
002100
002100
ENDCHAR
STARTCHAR uni0915
ENCODING 2324
SWIDTH 866 0
DWIDTH 13 0
BBX 14 11 0 0
BITMAP
FFFC
0400
0400
7400
8DC0
8620
8C20
7420
0420
0440
0400
ENDCHAR
STARTCHAR uni0916
ENCODING 2325
SWIDTH 933 0
DWIDTH 14 0
BBX 14 11 0 0
BITMAP
FFFC
1020
1020
13A0
B660
E460
44E0
43A0
2020
1060
0FA0
ENDCHAR
STARTCHAR uni0917
ENCODING 2326
SWIDTH 800 0
DWIDTH 12 0
BBX 12 11 0 0
BITMAP
FFF0
2100
2100
2100
2100
2100
A100
6100
2100
0100
0100
ENDCHAR
STARTCHAR uni0918
ENCODING 2327
SWIDTH 866 0
DWIDTH 13 0
BBX 13 11 0 0
BITMAP
FFF8
4080
4080
3C80
3080
2080
2180
1E80
0080
0080
0080
ENDCHAR
STARTCHAR uni0919
ENCODING 2328
SWIDTH 866 0
DWIDTH 13 0
BBX 13 10 0 1
BITMAP
FFF8
0200
3E00
2000
2020
1E20
8100
8100
4100
3E00
ENDCHAR
STARTCHAR uni091A
ENCODING 2329
SWIDTH 866 0
DWIDTH 13 0
BBX 13 11 0 0
BITMAP
FFF8
0080
0080
0080
7F80
0880
1080
1180
0E80
0080
0080
ENDCHAR
STARTCHAR uni091B
ENCODING 2330
SWIDTH 1066 0
DWIDTH 16 0
BBX 16 12 0 -1
BITMAP
FFFF
0020
0020
3870
40C8
4088
3E48
1838
1018
1018
1864
0F84
ENDCHAR
STARTCHAR uni091C
ENCODING 2331
SWIDTH 933 0
DWIDTH 14 0
BBX 14 11 0 0
BITMAP
FFFC
0040
0040
0040
8FC0
8440
4240
4240
2240
1C40
0040
ENDCHAR
STARTCHAR uni091D
ENCODING 2332
SWIDTH 1000 0
DWIDTH 15 0
BBX 15 12 0 -1
BITMAP
FFFE
0420
7C20
4020
4020
3FE0
0420
0420
3C20
3C20
0420
0200
ENDCHAR
STARTCHAR uni091E
ENCODING 2333
SWIDTH 866 0
DWIDTH 13 0
BBX 13 11 0 0
BITMAP
FFF8
0080
1880
2480
0780
8480
4C80
3880
0080
0080
0080
ENDCHAR
STARTCHAR uni091F
ENCODING 2334
SWIDTH 733 0
DWIDTH 11 0
BBX 12 11 0 0
BITMAP
FFF0
0200
0200
3E00
6000
C000
8000
8000
8100
4300
3E00
ENDCHAR
STARTCHAR uni0920
ENCODING 2335
SWIDTH 733 0
DWIDTH 11 0
BBX 12 11 0 0
BITMAP
FFF0
0200
0200
1E00
3100
6080
4080
4080
4080
2180
1F00
ENDCHAR
STARTCHAR uni0921
ENCODING 2336
SWIDTH 800 0
DWIDTH 12 0
BBX 12 10 0 1
BITMAP
FFF0
0200
3E00
2000
1000
0E00
8100
8080
4080
3F00
ENDCHAR
STARTCHAR uni0922
ENCODING 2337
SWIDTH 733 0
DWIDTH 11 0
BBX 11 11 0 0
BITMAP
FFE0
0200
0200
7E00
C000
8000
8600
8D00
4900
2900
1E00
ENDCHAR
STARTCHAR uni0923
ENCODING 2338
SWIDTH 933 0
DWIDTH 14 0
BBX 14 11 0 0
BITMAP
FFFC
4440
4440
4440
4440
4440
4440
2440
1840
0040
0040
ENDCHAR
STARTCHAR uni0924
ENCODING 2339
SWIDTH 733 0
DWIDTH 11 0
BBX 12 12 0 -1
BITMAP
FFF0
0100
0100
0100
7F00
C100
8100
8100
4100
4100
2100
1000
ENDCHAR
STARTCHAR uni0925
ENCODING 2340
SWIDTH 733 0
DWIDTH 11 0
BBX 12 11 0 0
BITMAP
67F0
D100
8900
7900
3100
E100
4100
2100
1F00
0100
0100
ENDCHAR
STARTCHAR uni0926
ENCODING 2341
SWIDTH 733 0
DWIDTH 11 0
BBX 11 11 0 0
BITMAP
FFE0
0400
0400
7C00
8000
8000
8600
4600
3E00
0200
0100
ENDCHAR
STARTCHAR uni0927
ENCODING 2342
SWIDTH 733 0
DWIDTH 11 0
BBX 12 11 0 0
BITMAP
47F0
8100
8100
7900
6100
4100
4300
3D00
0100
0100
0100
ENDCHAR
STARTCHAR uni0928
ENCODING 2343
SWIDTH 733 0
DWIDTH 11 0
BBX 12 11 0 0
BITMAP
FFF0
0100
0100
0100
FF00
C100
4100
2100
0100
0100
0100
ENDCHAR
STARTCHAR uni0929
ENCODING 2344
SWIDTH 733 0
DWIDTH 11 0
BBX 12 11 0 0
BITMAP
FFF0
0100
0100
0100
FF00
C100
4100
2100
0100
0900
0900
ENDCHAR
STARTCHAR uni092A
ENCODING 2345
SWIDTH 733 0
DWIDTH 11 0
BBX 11 11 0 0
BITMAP
FFE0
4200
4200
4200
4200
4200
4600
3A00
0200
0200
0200
ENDCHAR
STARTCHAR uni092B
ENCODING 2346
SWIDTH 933 0
DWIDTH 14 0
BBX 15 11 0 0
BITMAP
FFFE
4200
4200
42E0
4310
4610
3A10
0210
0220
0200
0200
ENDCHAR
STARTCHAR uni092C
ENCODING 2347
SWIDTH 733 0
DWIDTH 11 0
BBX 11 11 0 0
BITMAP
FFE0
0200
0200
7A00
E600
9600
8E00
7A00
0200
0200
0200
ENDCHAR
STARTCHAR uni092D
ENCODING 2348
SWIDTH 800 0
DWIDTH 12 0
BBX 12 11 0 0
BITMAP
C7F0
A100
9100
7100
1100
FF00
6100
2100
0100
0100
0100
ENDCHAR
STARTCHAR uni092E
ENCODING 2349
SWIDTH 800 0
DWIDTH 12 0
BBX 12 11 0 0
BITMAP
FFF0
2100
2100
2100
2100
FF00
6100
2100
0100
0100
0100
ENDCHAR
STARTCHAR uni092F
ENCODING 2350
SWIDTH 733 0
DWIDTH 11 0
BBX 12 11 0 0
BITMAP
FFF0
1100
1100
2100
C100
8100
4300
3D00
0100
0100
0100
ENDCHAR
STARTCHAR uni0930
ENCODING 2351
SWIDTH 666 0
DWIDTH 10 0
BBX 11 12 0 -1
BITMAP
FFE0
0400
0400
0400
2C00
3800
1000
1000
0800
0800
0400
0200
ENDCHAR
STARTCHAR uni0931
ENCODING 2352
SWIDTH 666 0
DWIDTH 10 0
BBX 11 12 0 -1
BITMAP
FFE0
0400
0400
0400
2C00
3800
1000
1000
0800
2800
2400
0200
ENDCHAR
STARTCHAR uni0932
ENCODING 2353
SWIDTH 933 0
DWIDTH 14 0
BBX 15 11 0 0
BITMAP
FFFE
0020
0020
0020
78E0
8520
8220
8020
4020
4020
2020
ENDCHAR
STARTCHAR uni0933
ENCODING 2354
SWIDTH 933 0
DWIDTH 14 0
BBX 14 11 0 0
BITMAP
FFFC
0020
0020
0020
7860
C490
8108
8208
8308
4498
3870
ENDCHAR
STARTCHAR uni0934
ENCODING 2355
SWIDTH 933 0
DWIDTH 14 0
BBX 14 15 0 -4
BITMAP
FFFC
0020
0020
0020
7860
C490
8108
8208
8308
4498
3870
0000
0000
0200
0200
ENDCHAR
STARTCHAR uni0935
ENCODING 2356
SWIDTH 733 0
DWIDTH 11 0
BBX 11 11 0 0
BITMAP
FFE0
0200
0200
7A00
8600
8600
8600
7A00
0200
0200
0200
ENDCHAR
STARTCHAR uni0936
ENCODING 2357
SWIDTH 933 0
DWIDTH 14 0
BBX 14 11 0 0
BITMAP
FFFC
1440
2240
2240
2240
1E40
2240
5C40
3840
0440
0440
ENDCHAR
STARTCHAR uni0937
ENCODING 2358
SWIDTH 733 0
DWIDTH 11 0
BBX 11 11 0 0
BITMAP
FFE0
6200
5200
5200
4A00
4A00
2600
1E00
0200
0200
0200
ENDCHAR
STARTCHAR uni0938
ENCODING 2359
SWIDTH 866 0
DWIDTH 13 0
BBX 13 12 0 -1
BITMAP
FFF8
1080
1080
1080
B180
FE80
4080
4080
2080
2080
1080
0800
ENDCHAR
STARTCHAR uni0939
ENCODING 2360
SWIDTH 733 0
DWIDTH 11 0
BBX 11 14 0 -3
BITMAP
FFE0
0200
0200
1E00
2000
1000
1E00
3100
2100
2200
2000
1000
0800
0600
ENDCHAR
STARTCHAR uni093C
ENCODING 2363
SWIDTH 66 0
DWIDTH 1 0
BBX 1 2 0 -2
BITMAP
80
80
ENDCHAR
STARTCHAR uni093D
ENCODING 2364
SWIDTH 666 0
DWIDTH 10 0
BBX 7 12 1 -1
BITMAP
3E
60
40
40
20
10
88
88
84
84
4C
38
ENDCHAR
STARTCHAR uni093E
ENCODING 2365
SWIDTH 400 0
DWIDTH 6 0
BBX 6 11 0 0
BITMAP
FC
40
40
40
40
40
40
40
40
40
40
ENDCHAR
STARTCHAR uni093F
ENCODING 2366
SWIDTH 400 0
DWIDTH 6 0
BBX 9 16 0 0
BITMAP
3C00
4300
4080
4000
4000
FC00
4000
4000
4000
4000
4000
4000
4000
4000
4000
4000
ENDCHAR
STARTCHAR uni0940
ENCODING 2367
SWIDTH 333 0
DWIDTH 5 0
BBX 12 16 -5 0
BITMAP
7800
8400
8200
8100
0100
03F0
0100
0100
0100
0100
0100
0100
0100
0100
0100
0100
ENDCHAR
STARTCHAR uni0941
ENCODING 2368
SWIDTH 0 0
DWIDTH 0 0
BBX 8 4 0 -4
BITMAP
0E
89
61
1F
ENDCHAR
STARTCHAR uni0942
ENCODING 2369
SWIDTH 0 0
DWIDTH 0 0
BBX 7 5 0 -5
BITMAP
E0
98
84
42
30
ENDCHAR
STARTCHAR uni0943
ENCODING 2370
SWIDTH 0 0
DWIDTH 0 0
BBX 5 4 0 -4
BITMAP
70
C0
80
78
ENDCHAR
STARTCHAR uni0944
ENCODING 2371
SWIDTH 0 0
DWIDTH 0 0
BBX 6 7 0 -7
BITMAP
70
80
80
78
80
80
7C
ENDCHAR
STARTCHAR uni0945
ENCODING 2372
SWIDTH 0 0
DWIDTH 0 0
BBX 6 3 0 13
BITMAP
84
44
38
ENDCHAR
STARTCHAR uni0946
ENCODING 2373
SWIDTH 0 0
DWIDTH 0 0
BBX 7 5 0 10
BITMAP
80
80
7C
02
02
ENDCHAR
STARTCHAR uni0947
ENCODING 2374
SWIDTH 466 0
DWIDTH 7 0
BBX 7 5 0 11
BITMAP
E0
10
08
04
02
ENDCHAR
STARTCHAR uni0948
ENCODING 2375
SWIDTH 0 0
DWIDTH 0 0
BBX 8 6 0 11
BITMAP
30
18
E4
7A
06
01
ENDCHAR
STARTCHAR uni0949
ENCODING 2376
SWIDTH 466 0
DWIDTH 7 0
BBX 7 15 -1 0
BITMAP
84
44
38
00
7E
20
20
20
20
20
20
20
20
20
20
ENDCHAR
STARTCHAR uni094A
ENCODING 2377
SWIDTH 733 0
DWIDTH 11 0
BBX 11 16 -5 0
BITMAP
8000
8000
7C00
0200
0200
07E0
0200
0200
0200
0200
0200
0200
0200
0200
0200
0200
ENDCHAR
STARTCHAR uni094B
ENCODING 2378
SWIDTH 733 0
DWIDTH 11 0
BBX 11 16 -5 0
BITMAP
E000
1000
0800
0400
0200
07E0
0200
0200
0200
0200
0200
0200
0200
0200
0200
0200
ENDCHAR
STARTCHAR uni094C
ENCODING 2379
SWIDTH 800 0
DWIDTH 12 0
BBX 12 17 -6 0
BITMAP
3000
1800
E400
7A00
0600
0100
03F0
0100
0100
0100
0100
0100
0100
0100
0100
0100
0100
ENDCHAR
STARTCHAR uni094D
ENCODING 2380
SWIDTH 0 0
DWIDTH 0 0
BBX 5 3 0 -3
BITMAP
E0
10
08
ENDCHAR
STARTCHAR uni0950
ENCODING 2383
SWIDTH 1066 0
DWIDTH 16 0
BBX 15 13 1 -1
BITMAP
0010
0092
7882
0446
023C
0400
080C
1E12
8132
81AC
4140
2300
1E00
ENDCHAR
STARTCHAR uni0951
ENCODING 2384
SWIDTH 66 0
DWIDTH 1 0
BBX 1 4 0 11
BITMAP
80
80
80
80
ENDCHAR
STARTCHAR uni0952
ENCODING 2385
SWIDTH 266 0
DWIDTH 4 0
BBX 4 4 0 11
BITMAP
80
40
20
10
ENDCHAR
STARTCHAR uni0953
ENCODING 2386
SWIDTH 266 0
DWIDTH 4 0
BBX 4 4 0 11
BITMAP
10
20
40
80
ENDCHAR
STARTCHAR uni0958
ENCODING 2391
SWIDTH 866 0
DWIDTH 13 0
BBX 14 11 0 0
BITMAP
FFFC
0400
0400
7400
8DC0
8620
8C20
7420
0420
2440
2400
ENDCHAR
STARTCHAR uni0959
ENCODING 2392
SWIDTH 933 0
DWIDTH 14 0
BBX 14 15 0 -4
BITMAP
FFFC
1020
1020
13A0
B660
E460
44E0
43A0
2020
1060
0FA0
0000
0000
0100
0100
ENDCHAR
STARTCHAR uni095A
ENCODING 2393
SWIDTH 800 0
DWIDTH 12 0
BBX 12 11 0 0
BITMAP
FFF0
2100
2100
2100
2100
2100
A100
6100
2100
0900
0900
ENDCHAR
STARTCHAR uni095B
ENCODING 2394
SWIDTH 933 0
DWIDTH 14 0
BBX 14 15 0 -4
BITMAP
FFFC
0040
0040
0040
8FC0
8440
4240
4240
2240
1C40
0040
0000
0000
0200
0200
ENDCHAR
STARTCHAR uni095C
ENCODING 2395
SWIDTH 800 0
DWIDTH 12 0
BBX 12 15 0 -4
BITMAP
FFF0
0200
3E00
2000
2000
1E00
8100
8100
4100
3E00
0000
0000
0000
0400
0400
ENDCHAR
STARTCHAR uni095D
ENCODING 2396
SWIDTH 733 0
DWIDTH 11 0
BBX 11 15 0 -4
BITMAP
FFE0
0200
0200
7E00
C000
8000
8600
8D00
4900
2900
1E00
0000
0000
0800
0800
ENDCHAR
STARTCHAR uni095E
ENCODING 2397
SWIDTH 933 0
DWIDTH 14 0
BBX 15 11 0 0
BITMAP
FFFE
4200
4200
42C0
4320
4610
3A10
0210
0210
1220
1200
ENDCHAR
STARTCHAR uni095F
ENCODING 2398
SWIDTH 733 0
DWIDTH 11 0
BBX 12 15 0 -4
BITMAP
FFF0
1100
1100
2100
C100
8100
4300
3D00
0100
0100
0100
0000
0000
1000
1000
ENDCHAR
STARTCHAR uni0960
ENCODING 2399
SWIDTH 1133 0
DWIDTH 17 0
BBX 17 14 0 -3
BITMAP
FFFF80
010000
010000
391000
453800
03F000
030800
0D0800
311000
012400
012800
001200
001400
000800
ENDCHAR
STARTCHAR uni0961
ENCODING 2400
SWIDTH 1000 0
DWIDTH 15 0
BBX 15 15 0 -4
BITMAP
FFFE
0040
0040
0040
78E0
C590
8308
8008
4070
40C0
2080
1070
00C0
0080
0078
ENDCHAR
STARTCHAR uni0962
ENCODING 2401
SWIDTH 533 0
DWIDTH 8 0
BBX 8 5 0 -5
BITMAP
6C
92
82
44
03
ENDCHAR
STARTCHAR uni0963
ENCODING 2402
SWIDTH 466 0
DWIDTH 7 0
BBX 7 7 0 -7
BITMAP
6C
92
84
48
06
08
06
ENDCHAR
STARTCHAR uni0964
ENCODING 2403
SWIDTH 466 0
DWIDTH 7 0
BBX 1 11 7 -1
BITMAP
80
80
80
80
80
80
80
80
80
80
80
ENDCHAR
STARTCHAR uni0965
ENCODING 2404
SWIDTH 600 0
DWIDTH 9 0
BBX 5 11 5 -1
BITMAP
88
88
88
88
88
88
88
88
88
88
88
ENDCHAR
STARTCHAR uni0966
ENCODING 2405
SWIDTH 400 0
DWIDTH 6 0
BBX 6 7 0 2
BITMAP
70
C8
84
84
84
4C
38
ENDCHAR
STARTCHAR uni0967
ENCODING 2406
SWIDTH 466 0
DWIDTH 7 0
BBX 5 15 1 -4
BITMAP
60
D0
88
88
78
08
10
20
40
C0
40
20
10
38
08
ENDCHAR
STARTCHAR uni0968
ENCODING 2407
SWIDTH 666 0
DWIDTH 10 0
BBX 8 12 1 -2
BITMAP
FC
02
01
01
61
7E
38
10
08
04
02
02
ENDCHAR
STARTCHAR uni0969
ENCODING 2408
SWIDTH 600 0
DWIDTH 9 0
BBX 7 13 1 -2
BITMAP
F0
08
08
08
78
04
04
04
78
78
08
04
02
ENDCHAR
STARTCHAR uni096A
ENCODING 2409
SWIDTH 733 0
DWIDTH 11 0
BBX 10 10 1 1
BITMAP
8040
40C0
2180
1300
0E00
0C00
1A00
1200
1600
0C00
ENDCHAR
STARTCHAR uni096B
ENCODING 2410
SWIDTH 666 0
DWIDTH 10 0
BBX 9 12 1 -1
BITMAP
8000
8000
8600
8600
4600
3C00
0200
0200
0100
0100
0080
0080
ENDCHAR
STARTCHAR uni096C
ENCODING 2411
SWIDTH 533 0
DWIDTH 8 0
BBX 6 13 2 -2
BITMAP
70
80
80
80
78
40
40
40
3C
3C
20
40
80
ENDCHAR
STARTCHAR uni096D
ENCODING 2412
SWIDTH 866 0
DWIDTH 13 0
BBX 10 11 1 0
BITMAP
8000
8000
8300
8680
4440
4440
42C0
21C0
2040
1880
0700
ENDCHAR
STARTCHAR uni096E
ENCODING 2413
SWIDTH 533 0
DWIDTH 8 0
BBX 7 11 1 0
BITMAP
02
04
08
10
20
40
80
80
86
4C
38
ENDCHAR
STARTCHAR uni096F
ENCODING 2414
SWIDTH 666 0
DWIDTH 10 0
BBX 9 14 1 -3
BITMAP
7000
C800
8800
9800
7000
2000
2000
1000
0800
0400
0200
0100
0380
0100
ENDCHAR
STARTCHAR uni0970
ENCODING 2415
SWIDTH 733 0
DWIDTH 11 0
BBX 5 5 3 5
BITMAP
70
88
88
88
70
ENDCHAR
STARTCHAR uni0000
ENCODING 59648
SWIDTH 1000 0
DWIDTH 15 0
BBX 15 13 0 -2
BITMAP
31FE
6840
4440
4CC0
29C0
7E40
C040
8040
8440
8E40
7E40
0400
0200
ENDCHAR
STARTCHAR uni0001
ENCODING 59649
SWIDTH 866 0
DWIDTH 13 0
BBX 13 11 0 0
BITMAP
FFF8
0100
0100
7F00
3100
0900
0500
6500
7900
1100
0900
ENDCHAR
STARTCHAR uni0002
ENCODING 59650
SWIDTH 1000 0
DWIDTH 15 0
BBX 15 11 0 0
BITMAP
FFFE
0040
0040
0040
FFC0
1040
2040
2040
2040
1040
0840
ENDCHAR
STARTCHAR uni0003
ENCODING 59651
SWIDTH 800 0
DWIDTH 12 0
BBX 12 11 0 0
BITMAP
FFF0
0200
0200
3A00
4600
0600
0A00
1200
2200
0200
0200
ENDCHAR
STARTCHAR uni0004
ENCODING 59652
SWIDTH 1000 0
DWIDTH 15 0
BBX 15 12 0 -1
BITMAP
FFFE
1840
2440
2440
1840
6740
00C0
7C40
18C0
10C0
1140
0E00
ENDCHAR
STARTCHAR uni0005
ENCODING 59653
SWIDTH 1000 0
DWIDTH 15 0
BBX 15 11 0 0
BITMAP
FFFE
1840
2440
2440
1840
6740
00C0
01C0
0240
0440
0040
ENDCHAR
STARTCHAR uni0006
ENCODING 59654
SWIDTH 1000 0
DWIDTH 15 0
BBX 15 11 0 0
BITMAP
FFFE
1840
2440
2440
1840
6740
08C0
08C0
08C0
0740
0040
ENDCHAR
STARTCHAR uni0007
ENCODING 59655
SWIDTH 933 0
DWIDTH 14 0
BBX 14 11 0 0
BITMAP
FFFC
0400
0400
7400
8DC0
8620
8C20
7420
1420
6440
8400
ENDCHAR
STARTCHAR uni0008
ENCODING 59656
SWIDTH 1200 0
DWIDTH 18 0
BBX 18 11 0 0
BITMAP
FFFFC0
000800
000800
000800
8FF800
840800
820800
421800
232800
1E4800
008800
ENDCHAR
STARTCHAR uni0009
ENCODING 59657
SWIDTH 1200 0
DWIDTH 18 0
BBX 18 11 0 0
BITMAP
FFFFC0
000800
000800
000800
8FF800
840800
82C800
429800
232800
1E4800
008800
ENDCHAR
STARTCHAR uni000A
ENCODING 59658
SWIDTH 1000 0
DWIDTH 15 0
BBX 15 11 0 0
BITMAP
FFFE
4200
4200
42C0
4320
4210
3E10
0A10
1210
2220
4200
ENDCHAR
STARTCHAR uni000B
ENCODING 59659
SWIDTH 1000 0
DWIDTH 15 0
BBX 15 11 0 0
BITMAP
FFFE
4200
4200
42C0
4320
4210
3E10
8A10
9210
2220
4200
ENDCHAR
STARTCHAR uni000C
ENCODING 59660
SWIDTH 733 0
DWIDTH 11 0
BBX 11 11 0 0
BITMAP
FFE0
4200
4200
4200
4200
4200
3E00
0A00
1200
2200
4200
ENDCHAR
STARTCHAR uni000D
ENCODING 59661
SWIDTH 933 0
DWIDTH 14 0
BBX 14 12 0 -1
BITMAP
FFFC
1040
1040
1040
B0C0
FFC0
40C0
4140
2240
2440
1040
0800
ENDCHAR
STARTCHAR uni000E
ENCODING 59662
SWIDTH 800 0
DWIDTH 12 0
BBX 12 12 0 -1
BITMAP
FFF0
0200
0200
0200
2700
3C80
1080
1180
0800
0400
0200
0100
ENDCHAR
STARTCHAR uni000F
ENCODING 59663
SWIDTH 933 0
DWIDTH 14 0
BBX 14 11 0 0
BITMAP
FFFC
0400
0400
0400
2D80
1F60
1210
11C8
0800
0400
0200
ENDCHAR
STARTCHAR uni0015
ENCODING 59669
SWIDTH 666 0
DWIDTH 10 0
BBX 10 11 0 0
BITMAP
FFC0
0400
0400
7400
8DC0
8600
8C00
7400
0400
0400
0400
ENDCHAR
STARTCHAR uni0016
ENCODING 59670
SWIDTH 666 0
DWIDTH 10 0
BBX 10 11 0 0
BITMAP
FFC0
1000
1000
1380
B640
E440
44C0
4380
2000
1040
0F80
ENDCHAR
STARTCHAR uni0017
ENCODING 59671
SWIDTH 466 0
DWIDTH 7 0
BBX 7 9 0 2
BITMAP
FE
20
20
20
20
20
A0
60
20
ENDCHAR
STARTCHAR uni0018
ENCODING 59672
SWIDTH 533 0
DWIDTH 8 0
BBX 8 8 0 3
BITMAP
FF
40
40
3C
30
20
21
1E
ENDCHAR
STARTCHAR uni0019
ENCODING 59673
SWIDTH 866 0
DWIDTH 13 0
BBX 13 10 0 1
BITMAP
FFF8
0200
3E00
2000
2020
1E20
8100
8100
4100
3E00
ENDCHAR
STARTCHAR uni001A
ENCODING 59674
SWIDTH 533 0
DWIDTH 8 0
BBX 8 9 0 2
BITMAP
FF
00
00
00
7F
08
10
11
0E
ENDCHAR
STARTCHAR uni001B
ENCODING 59675
SWIDTH 1066 0
DWIDTH 16 0
BBX 16 12 0 -1
BITMAP
FFFF
0020
0020
3870
40C8
4088
3E48
1838
1018
1018
1864
0F84
ENDCHAR
STARTCHAR uni001C
ENCODING 59676
SWIDTH 600 0
DWIDTH 9 0
BBX 9 10 0 1
BITMAP
FF80
0000
0000
0000
8F80
8400
4200
4200
2200
1C00
ENDCHAR
STARTCHAR uni001D
ENCODING 59677
SWIDTH 666 0
DWIDTH 10 0
BBX 10 12 0 -1
BITMAP
FFC0
0400
7C00
4000
4000
3FC0
0400
0400
3C00
3C00
0400
0200
ENDCHAR
STARTCHAR uni001E
ENCODING 59678
SWIDTH 533 0
DWIDTH 8 0
BBX 8 8 0 3
BITMAP
FF
00
18
24
07
84
4C
38
ENDCHAR
STARTCHAR uni001F
ENCODING 59679
SWIDTH 800 0
DWIDTH 12 0
BBX 12 11 0 0
BITMAP
FFF0
0200
0200
3E00
6000
C000
8000
8000
8100
4300
3E00
ENDCHAR
STARTCHAR uni0020
ENCODING 59680
SWIDTH 800 0
DWIDTH 12 0
BBX 12 11 0 0
BITMAP
FFF0
0200
0200
1E00
3100
6080
4080
4080
4080
2180
1F00
ENDCHAR
STARTCHAR uni0021
ENCODING 59681
SWIDTH 800 0
DWIDTH 12 0
BBX 12 10 0 1
BITMAP
FFF0
0200
3E00
2000
1000
0E00
8100
8080
4080
3F00
ENDCHAR
STARTCHAR uni0022
ENCODING 59682
SWIDTH 733 0
DWIDTH 11 0
BBX 11 11 0 0
BITMAP
FFE0
0200
0200
7E00
C000
8000
8600
8D00
4900
2900
1E00
ENDCHAR
STARTCHAR uni0023
ENCODING 59683
SWIDTH 600 0
DWIDTH 9 0
BBX 9 9 0 2
BITMAP
FF80
4400
4400
4400
4400
4400
4400
2400
1800
ENDCHAR
STARTCHAR uni0024
ENCODING 59684
SWIDTH 466 0
DWIDTH 7 0
BBX 7 12 0 -1
BITMAP
FE
00
00
00
7E
C0
80
80
40
40
20
10
ENDCHAR
STARTCHAR uni0025
ENCODING 59685
SWIDTH 466 0
DWIDTH 7 0
BBX 7 9 0 2
BITMAP
66
D0
88
78
30
E0
40
20
1E
ENDCHAR
STARTCHAR uni0026
ENCODING 59686
SWIDTH 733 0
DWIDTH 11 0
BBX 11 11 0 0
BITMAP
FFE0
0400
0400
7C00
8000
8000
8600
4600
3E00
0200
0100
ENDCHAR
STARTCHAR uni0027
ENCODING 59687
SWIDTH 466 0
DWIDTH 7 0
BBX 7 8 0 3
BITMAP
46
80
80
78
60
40
42
3C
ENDCHAR
STARTCHAR uni0028
ENCODING 59688
SWIDTH 466 0
DWIDTH 7 0
BBX 7 8 0 3
BITMAP
FE
00
00
00
FE
C0
40
20
ENDCHAR
STARTCHAR uni0029
ENCODING 59689
SWIDTH 466 0
DWIDTH 7 0
BBX 7 11 0 0
BITMAP
FE
00
00
00
FE
C0
40
20
00
08
08
ENDCHAR
STARTCHAR uni002A
ENCODING 59690
SWIDTH 400 0
DWIDTH 6 0
BBX 6 8 0 3
BITMAP
FC
40
40
40
40
40
44
38
ENDCHAR
STARTCHAR uni002B
ENCODING 59691
SWIDTH 733 0
DWIDTH 11 0
BBX 11 11 0 0
BITMAP
FFE0
4200
4200
42E0
4300
4600
3A00
0200
0200
0200
0200
ENDCHAR
STARTCHAR uni002C
ENCODING 59692
SWIDTH 400 0
DWIDTH 6 0
BBX 6 8 0 3
BITMAP
FC
00
00
78
E4
94
8C
78
ENDCHAR
STARTCHAR uni002D
ENCODING 59693
SWIDTH 466 0
DWIDTH 7 0
BBX 7 8 0 3
BITMAP
C6
A0
90
70
10
FE
60
20
ENDCHAR
STARTCHAR uni002E
ENCODING 59694
SWIDTH 466 0
DWIDTH 7 0
BBX 7 8 0 3
BITMAP
FE
20
20
20
20
FE
60
20
ENDCHAR
STARTCHAR uni002F
ENCODING 59695
SWIDTH 466 0
DWIDTH 7 0
BBX 7 8 0 3
BITMAP
FE
10
10
20
C0
80
42
3C
ENDCHAR
STARTCHAR uni0030
ENCODING 59696
SWIDTH 733 0
DWIDTH 11 0
BBX 11 12 0 -1
BITMAP
FFE0
0400
0400
0400
2C00
3800
1000
1000
0800
0800
0400
0200
ENDCHAR
STARTCHAR uni0031
ENCODING 59697
SWIDTH 733 0
DWIDTH 11 0
BBX 11 12 0 -1
BITMAP
FFE0
0400
0400
0400
2C00
3800
1000
1000
0800
2800
2400
0200
ENDCHAR
STARTCHAR uni0032
ENCODING 59698
SWIDTH 600 0
DWIDTH 9 0
BBX 10 11 0 0
BITMAP
FFC0
0000
0000
0000
78C0
8500
8200
8000
4000
4000
2000
ENDCHAR
STARTCHAR uni0033
ENCODING 59699
SWIDTH 866 0
DWIDTH 13 0
BBX 13 11 0 0
BITMAP
FFF8
0000
0000
0000
7860
C490
8108
8208
8308
4498
3870
ENDCHAR
STARTCHAR uni0034
ENCODING 59700
SWIDTH 866 0
DWIDTH 13 0
BBX 13 15 0 -4
BITMAP
FFF8
0000
0000
0000
7860
C490
8108
8208
8308
4498
3870
0000
0000
0200
0200
ENDCHAR
STARTCHAR uni0035
ENCODING 59701
SWIDTH 400 0
DWIDTH 6 0
BBX 6 8 0 3
BITMAP
FC
00
00
78
84
84
84
78
ENDCHAR
STARTCHAR uni0036
ENCODING 59702
SWIDTH 600 0
DWIDTH 9 0
BBX 9 11 0 0
BITMAP
FF80
1400
2200
2200
2200
1E00
2200
5C00
3800
0400
0400
ENDCHAR
STARTCHAR uni0037
ENCODING 59703
SWIDTH 400 0
DWIDTH 6 0
BBX 6 8 0 3
BITMAP
FC
60
50
50
48
48
24
1C
ENDCHAR
STARTCHAR uni0038
ENCODING 59704
SWIDTH 533 0
DWIDTH 8 0
BBX 8 12 0 -1
BITMAP
FF
10
10
10
B1
FE
40
40
20
20
10
08
ENDCHAR
STARTCHAR uni0039
ENCODING 59705
SWIDTH 733 0
DWIDTH 11 0
BBX 11 14 0 -3
BITMAP
FFE0
0200
0200
1E00
2000
1000
1E00
3100
2100
2200
2000
1000
0800
0600
ENDCHAR
STARTCHAR uni0040
ENCODING 59712
SWIDTH 666 0
DWIDTH 10 0
BBX 10 11 0 0
BITMAP
FFC0
0400
7580
8E40
8C40
7480
8F80
8C40
7440
0480
0400
ENDCHAR
STARTCHAR uni0041
ENCODING 59713
SWIDTH 1000 0
DWIDTH 15 0
BBX 15 12 0 -1
BITMAP
FFFE
0040
0040
0040
FFDC
3062
2042
2042
2042
1044
0840
0400
ENDCHAR
STARTCHAR uni0042
ENCODING 59714
SWIDTH 933 0
DWIDTH 14 0
BBX 14 16 0 -5
BITMAP
FFFC
0100
3F00
2000
2020
1E20
8100
8100
4100
3E00
0400
3500
4E80
4C80
3480
0400
ENDCHAR
STARTCHAR uni0043
ENCODING 59715
SWIDTH 933 0
DWIDTH 14 0
BBX 14 16 0 -5
BITMAP
FFFC
0100
3F00
2000
2020
1E20
8100
8100
4100
3F00
6100
CD00
9300
5300
4D00
2100
ENDCHAR
STARTCHAR uni0044
ENCODING 59716
SWIDTH 933 0
DWIDTH 14 0
BBX 14 16 0 -5
BITMAP
FFFC
0100
3F00
2000
2020
1E20
8100
8100
4100
3F00
1100
1100
3100
3100
1100
0100
ENDCHAR
STARTCHAR uni0045
ENCODING 59717
SWIDTH 933 0
DWIDTH 14 0
BBX 14 16 0 -5
BITMAP
FFFC
0200
3E00
2000
2020
1E20
8100
8100
4100
7E00
4200
4200
3A00
2200
1E00
0200
ENDCHAR
STARTCHAR uni0046
ENCODING 59718
SWIDTH 933 0
DWIDTH 14 0
BBX 14 11 0 0
BITMAP
FFFC
0040
1840
47C0
2440
1840
0040
47C0
4440
2240
1C40
ENDCHAR
STARTCHAR uni0047
ENCODING 59719
SWIDTH 933 0
DWIDTH 14 0
BBX 14 13 0 -2
BITMAP
FFFC
0080
0080
0F80
1000
1000
30C0
50C0
4FC0
2040
1840
10C0
0F40
ENDCHAR
STARTCHAR uni0048
ENCODING 59720
SWIDTH 733 0
DWIDTH 11 0
BBX 11 14 0 -3
BITMAP
FFE0
0400
0400
3C00
4000
2000
3C00
4000
4000
4300
3F00
0300
0100
0080
ENDCHAR
STARTCHAR uni0049
ENCODING 59721
SWIDTH 933 0
DWIDTH 14 0
BBX 14 13 0 -2
BITMAP
FFFC
0080
0080
0F80
1000
1000
10C0
50C0
4FC0
4040
3860
1080
0F00
ENDCHAR
STARTCHAR uni004A
ENCODING 59722
SWIDTH 733 0
DWIDTH 11 0
BBX 11 14 0 -3
BITMAP
FFE0
0400
0400
7C00
8000
8000
8600
8600
7E00
1E00
3300
2A80
2600
1C00
ENDCHAR
STARTCHAR uni004B
ENCODING 59723
SWIDTH 866 0
DWIDTH 13 0
BBX 13 13 0 -2
BITMAP
FFF8
0080
0080
0F80
1000
1000
1180
9180
4F80
4080
4080
FF80
C080
ENDCHAR
STARTCHAR uni004C
ENCODING 59724
SWIDTH 933 0
DWIDTH 14 0
BBX 14 12 0 -1
BITMAP
FFFC
0440
0440
7C40
8040
8040
8C40
8C40
7C40
0440
0FC0
0C40
ENDCHAR
STARTCHAR uni004D
ENCODING 59725
SWIDTH 1000 0
DWIDTH 15 0
BBX 15 12 0 -1
BITMAP
FFFE
0220
0220
3E20
4020
4020
4620
4620
3E20
0420
0260
01C0
ENDCHAR
STARTCHAR uni004E
ENCODING 59726
SWIDTH 733 0
DWIDTH 11 0
BBX 11 14 0 -3
BITMAP
FFE0
0400
0400
7C00
8000
8000
8600
8600
7E00
1E00
2300
2280
2200
1C00
ENDCHAR
STARTCHAR uni004F
ENCODING 59727
SWIDTH 800 0
DWIDTH 12 0
BBX 12 17 0 -6
BITMAP
FFF0
0200
0200
7E00
C000
8000
8080
C180
7F00
0200
0200
7E00
C000
8000
8080
C180
7F00
ENDCHAR
STARTCHAR uni0050
ENCODING 59728
SWIDTH 800 0
DWIDTH 12 0
BBX 12 17 0 -6
BITMAP
FFF0
0200
0200
7E00
C000
8000
8100
C300
7E00
0200
3E00
6200
C100
8100
8100
4300
3E00
ENDCHAR
STARTCHAR uni0051
ENCODING 59729
SWIDTH 800 0
DWIDTH 12 0
BBX 12 16 0 -5
BITMAP
FFF0
0200
0200
3E00
6100
C100
8100
8300
7E00
0200
3E00
6100
C100
8100
8300
7E00
ENDCHAR
STARTCHAR uni0052
ENCODING 59730
SWIDTH 933 0
DWIDTH 14 0
BBX 14 16 0 -5
BITMAP
FFFC
0100
3F00
2000
2000
1E00
8100
8100
4100
3F00
1100
1100
3100
3100
1100
0100
ENDCHAR
STARTCHAR uni0053
ENCODING 59731
SWIDTH 800 0
DWIDTH 12 0
BBX 12 18 0 -7
BITMAP
FFF0
0100
0100
3F00
2000
3C00
8600
8200
4600
3E00
0200
3E00
2000
3C00
8600
8200
4600
3C00
ENDCHAR
STARTCHAR uni0054
ENCODING 59732
SWIDTH 800 0
DWIDTH 12 0
BBX 12 18 0 -7
BITMAP
FFF0
0100
0100
3F00
2000
3C00
8600
8200
4600
3E00
0200
3E00
4000
8000
9C00
A200
6200
3C00
ENDCHAR
STARTCHAR uni0055
ENCODING 59733
SWIDTH 933 0
DWIDTH 14 0
BBX 14 11 0 0
BITMAP
FFFC
0080
0080
7880
6480
2380
0E80
3880
3080
1080
0080
ENDCHAR
STARTCHAR uni0056
ENCODING 59734
SWIDTH 1066 0
DWIDTH 16 0
BBX 16 15 0 -4
BITMAP
FFFF
0210
0210
3E10
4010
2010
3C10
6210
4110
43F0
4310
2010
1000
0C00
0300
ENDCHAR
STARTCHAR uni0057
ENCODING 59735
SWIDTH 1066 0
DWIDTH 16 0
BBX 16 15 0 -4
BITMAP
FFFF
0210
0210
3E10
4010
2010
3C10
6210
4110
4130
4250
2190
1000
0C00
0300
ENDCHAR
STARTCHAR uni0058
ENCODING 59736
SWIDTH 1266 0
DWIDTH 19 0
BBX 19 15 0 -4
BITMAP
FFFFE0
000200
000200
003E00
004000
002000
003C00
006200
004100
3BC100
464200
422000
401000
200C00
180300
ENDCHAR
STARTCHAR uni0059
ENCODING 59737
SWIDTH 1066 0
DWIDTH 16 0
BBX 16 15 0 -4
BITMAP
FFFF
0010
0010
01F0
0200
0100
01E0
0310
0208
0208
3E10
6300
4280
4660
3C18
ENDCHAR
STARTCHAR uni005A
ENCODING 59738
SWIDTH 1200 0
DWIDTH 18 0
BBX 18 11 0 0
BITMAP
FFFFC0
100800
100800
10E800
B01800
FE1800
402800
404800
208800
100800
080800
ENDCHAR
STARTCHAR uni0070
ENCODING 59760
SWIDTH 600 0
DWIDTH 9 0
BBX 9 13 0 -2
BITMAP
3180
6800
4400
4C80
2980
7E00
C000
8000
8400
8E00
7E00
0400
0200
ENDCHAR
STARTCHAR uni0071
ENCODING 59761
SWIDTH 866 0
DWIDTH 13 0
BBX 13 11 0 0
BITMAP
FFF8
0100
0100
7F00
3100
0900
0500
6500
7900
1100
0900
ENDCHAR
STARTCHAR uni0072
ENCODING 59762
SWIDTH 600 0
DWIDTH 9 0
BBX 9 11 0 0
BITMAP
FF80
0000
0000
0000
FF80
1000
2000
2000
2000
1000
0800
ENDCHAR
STARTCHAR uni0073
ENCODING 59763
SWIDTH 400 0
DWIDTH 6 0
BBX 6 9 0 2
BITMAP
FC
00
00
78
84
04
08
30
40
ENDCHAR
STARTCHAR uni0074
ENCODING 59764
SWIDTH 600 0
DWIDTH 9 0
BBX 9 12 0 -1
BITMAP
FF80
1800
2400
2400
1800
6700
0080
7C00
1880
1080
1100
0E00
ENDCHAR
STARTCHAR uni0075
ENCODING 59765
SWIDTH 600 0
DWIDTH 9 0
BBX 9 10 0 1
BITMAP
FF80
1800
2400
2400
1800
6700
0080
0180
0200
0400
ENDCHAR
STARTCHAR uni0076
ENCODING 59766
SWIDTH 600 0
DWIDTH 9 0
BBX 9 10 0 1
BITMAP
FF80
1800
2400
2400
1800
6700
0880
0880
0880
0700
ENDCHAR
STARTCHAR uni007B
ENCODING 59771
SWIDTH 0 0
DWIDTH 0 0
BBX 4 7 0 10
BITMAP
60
90
A0
A0
80
40
20
ENDCHAR
STARTCHAR uni007C
ENCODING 59772
SWIDTH 733 0
DWIDTH 11 0
BBX 11 16 0 -5
BITMAP
FFE0
0200
0200
3E00
4000
2000
3C00
6200
4100
4100
4200
2000
1000
2C00
4300
8000
ENDCHAR
STARTCHAR uni007D
ENCODING 59773
SWIDTH 466 0
DWIDTH 7 0
BBX 8 7 0 4
BITMAP
FF
00
00
00
00
43
3C
ENDCHAR
STARTCHAR uni007E
ENCODING 59774
SWIDTH 266 0
DWIDTH 4 0
BBX 4 7 0 10
BITMAP
60
90
80
80
80
40
20
ENDCHAR
STARTCHAR uni007F
ENCODING 59775
SWIDTH 0 0
DWIDTH 0 0
BBX 5 5 0 -5
BITMAP
20
30
68
C0
80
ENDCHAR
STARTCHAR uni0080
ENCODING 59776
SWIDTH 466 0
DWIDTH 7 0
BBX 7 15 -1 0
BITMAP
B4
44
38
00
7E
20
20
20
20
20
20
20
20
20
20
ENDCHAR
STARTCHAR uni0081
ENCODING 59777
SWIDTH 400 0
DWIDTH 6 0
BBX 6 14 0 0
BITMAP
60
00
00
FC
40
40
40
40
40
40
40
40
40
40
ENDCHAR
STARTCHAR uni0082
ENCODING 59778
SWIDTH 400 0
DWIDTH 6 0
BBX 6 17 0 0
BITMAP
60
90
80
80
80
40
FC
40
40
40
40
40
40
40
40
40
40
ENDCHAR
STARTCHAR uni0083
ENCODING 59779
SWIDTH 400 0
DWIDTH 6 0
BBX 6 17 0 0
BITMAP
60
90
A0
A0
80
40
FC
40
40
40
40
40
40
40
40
40
40
ENDCHAR
STARTCHAR uni0084
ENCODING 59780
SWIDTH 400 0
DWIDTH 6 0
BBX 9 18 0 0
BITMAP
0080
0080
3C00
4300
4080
4000
4000
FC00
4000
4000
4000
4000
4000
4000
4000
4000
4000
4000
ENDCHAR
STARTCHAR uni0085
ENCODING 59781
SWIDTH 800 0
DWIDTH 12 0
BBX 12 17 0 0
BITMAP
0070
3C80
4380
4080
4000
4000
FC00
4000
4000
4000
4000
4000
4000
4000
4000
4000
4000
ENDCHAR
STARTCHAR uni0086
ENCODING 59782
SWIDTH 800 0
DWIDTH 12 0
BBX 12 17 0 0
BITMAP
0070
3C80
43A0
40A0
4000
4000
FC00
4000
4000
4000
4000
4000
4000
4000
4000
4000
4000
ENDCHAR
STARTCHAR uni0087
ENCODING 59783
SWIDTH 333 0
DWIDTH 5 0
BBX 12 16 -5 0
BITMAP
7800
8440
8240
8100
0100
03F0
0100
0100
0100
0100
0100
0100
0100
0100
0100
0100
ENDCHAR
STARTCHAR uni0088
ENCODING 59784
SWIDTH 333 0
DWIDTH 5 0
BBX 12 16 -5 0
BITMAP
78C0
8520
8300
8100
0100
03F0
0100
0100
0100
0100
0100
0100
0100
0100
0100
0100
ENDCHAR
STARTCHAR uni0089
ENCODING 59785
SWIDTH 333 0
DWIDTH 5 0
BBX 12 16 -5 0
BITMAP
78C0
8520
8340
8140
0100
03F0
0100
0100
0100
0100
0100
0100
0100
0100
0100
0100
ENDCHAR
STARTCHAR uni008A
ENCODING 59786
SWIDTH 0 0
DWIDTH 0 0
BBX 6 4 0 13
BITMAP
10
94
44
38
ENDCHAR
STARTCHAR uni008B
ENCODING 59787
SWIDTH 0 0
DWIDTH 0 0
BBX 7 6 0 11
BITMAP
02
E2
10
08
04
02
ENDCHAR
STARTCHAR uni008C
ENCODING 59788
SWIDTH 666 0
DWIDTH 10 0
BBX 10 5 0 11
BITMAP
E180
1240
0A00
0600
0200
ENDCHAR
STARTCHAR uni008D
ENCODING 59789
SWIDTH 666 0
DWIDTH 10 0
BBX 10 5 0 11
BITMAP
E180
1240
0A80
0680
0200
ENDCHAR
STARTCHAR uni008E
ENCODING 59790
SWIDTH 0 0
DWIDTH 0 0
BBX 8 6 0 11
BITMAP
31
19
E4
7A
06
01
ENDCHAR
STARTCHAR uni008F
ENCODING 59791
SWIDTH 866 0
DWIDTH 13 0
BBX 13 6 0 11
BITMAP
3000
1830
E448
7A40
0640
0140
ENDCHAR
STARTCHAR uni0090
ENCODING 59792
SWIDTH 866 0
DWIDTH 13 0
BBX 13 6 0 11
BITMAP
3000
1830
E448
7A50
0650
0140
ENDCHAR
STARTCHAR uni0091
ENCODING 59793
SWIDTH 733 0
DWIDTH 11 0
BBX 11 17 -5 0
BITMAP
0200
E200
1000
0800
0400
0200
07E0
0200
0200
0200
0200
0200
0200
0200
0200
0200
0200
ENDCHAR
STARTCHAR uni0092
ENCODING 59794
SWIDTH 733 0
DWIDTH 11 0
BBX 11 16 -5 0
BITMAP
E180
1240
0A00
0600
0200
07E0
0200
0200
0200
0200
0200
0200
0200
0200
0200
0200
ENDCHAR
STARTCHAR uni0093
ENCODING 59795
SWIDTH 733 0
DWIDTH 11 0
BBX 11 16 -5 0
BITMAP
E180
1240
0A80
0680
0200
07E0
0200
0200
0200
0200
0200
0200
0200
0200
0200
0200
ENDCHAR
STARTCHAR uni0094
ENCODING 59796
SWIDTH 800 0
DWIDTH 12 0
BBX 12 17 -6 0
BITMAP
3100
1900
E400
7A00
0600
0100
03F0
0100
0100
0100
0100
0100
0100
0100
0100
0100
0100
ENDCHAR
STARTCHAR uni0095
ENCODING 59797
SWIDTH 800 0
DWIDTH 12 0
BBX 12 18 -6 0
BITMAP
0200
3200
18C0
E520
7B00
0700
0100
03F0
0100
0100
0100
0100
0100
0100
0100
0100
0100
0100
ENDCHAR
ENDFONT
